<svg width="250" height="250" viewBox="0 0 250 250" fill="none" xmlns="http://www.w3.org/2000/svg">
<g clip-path="url(#clip0_3_657)">
<path d="M244.527 98.3451H153.697L124.763 11.8191L95.8275 98.3451H5L79.417 151.622L50.8495 238.198L124.763 185.399L198.683 238.096L170.107 151.625L244.527 98.3451Z" fill="#FFFFFE"/>
<path d="M124.764 22.116L98.1506 101.575H15.0486L83.2251 150.379L57.0051 229.836L124.778 181.435L192.528 229.836L166.297 150.379L234.476 101.575H151.374L124.764 22.116Z" fill="#002244"/>
<path d="M124.764 44.0154L103.364 108.375H36.05L91.2745 147.908L70.0365 212.265L124.929 173.065L179.488 212.265L158.25 147.911L213.477 108.375H146.161L124.764 44.0154Z" fill="#FFFFFE"/>
<path d="M124.763 62.9436L107.943 113.788H54.7725L98.3955 145.02L81.614 195.864L124.983 164.893L167.91 195.864L151.126 145.022L194.751 113.788H141.581L124.763 62.9436Z" fill="#002244"/>
</g>
<defs>
<clipPath id="clip0_3_657">
<rect width="250" height="250" fill="white"/>
</clipPath>
</defs>
</svg>
