<svg width="149" height="81" viewBox="0 0 149 81" fill="none" xmlns="http://www.w3.org/2000/svg">
<g clip-path="url(#clip0_18_357)">
<path d="M136.601 6.11873e-05H12.4229C9.13098 -0.0102686 5.96756 1.28769 3.61798 3.61274C2.45672 4.78561 1.53876 6.17998 0.917707 7.71447C0.296649 9.24896 -0.015074 10.8928 0.000732244 12.5501V68.4267C-0.0171494 70.078 0.292641 71.7163 0.911879 73.2451C1.53112 74.7739 2.4473 76.1624 3.60653 77.329C4.76414 78.496 6.13886 79.421 7.65184 80.051C9.16481 80.6809 10.7863 81.0035 12.4231 81.0001H136.601C139.897 80.9846 143.052 79.6527 145.376 77.2961C147.7 74.9395 149.003 71.7502 149 68.4267V12.5381C149.012 10.8911 148.7 9.25793 148.082 7.73342C147.464 6.20892 146.551 4.82336 145.398 3.65709C144.244 2.49082 142.873 1.56705 141.363 0.939322C139.853 0.311599 138.234 -0.00757978 136.601 0.000292133L136.601 6.11873e-05Z" fill="white"/>
<path d="M144.638 12.5386C144.651 11.4691 144.451 10.4079 144.052 9.41698C143.653 8.42605 143.062 7.52531 142.314 6.76741C141.565 6.0095 140.675 5.40966 139.694 5.00294C138.713 4.59622 137.661 4.39079 136.601 4.39866H101.893L121.806 37.955L123.643 38.1897L124.806 39.7262V41.1571L126.063 41.4151L127.226 43.0102V44.3943L128.529 44.6289L129.843 46.0716V49.2619C131.408 50.6865 133.171 51.872 135.077 52.7806C136.834 53.4607 137.031 56.299 138.09 57.8122C139.416 60.0173 141.23 60.8969 140.846 62.1286C139.962 65.4242 136.612 70.9837 133.495 71.2417H121.166V76.5666H136.612C137.675 76.562 138.727 76.3458 139.707 75.9302C140.687 75.5147 141.576 74.9081 142.323 74.1453C143.069 73.3824 143.659 72.4784 144.059 71.4849C144.458 70.4915 144.659 69.4284 144.65 68.3565V12.5383" fill="#BF0D3E"/>
<path d="M59.7283 71.3236H53.7612C53.7612 56.2872 58.7975 47.9713 64.8344 46.3175C65.6603 46.1651 65.2647 42.06 64.2179 40.8048H60.7286C60.1705 40.8048 60.4962 39.7494 60.4962 39.7494L63.3224 33.6622L62.9388 31.9966H52.4935L61.0775 25.9444C61.4732 9.98145 77.7107 8.73805 87.4927 15.3884C93.3084 19.2705 93.7504 26.965 93.3084 32.2781C93.2385 32.6183 91.7964 32.3954 91.7964 32.3954C91.7964 32.3954 90.8076 38.2598 93.3899 38.2598H104.8C109.453 38.0721 113.943 41.2506 113.943 41.2506L115.036 37.2275L90.0399 4.39858H12.423C10.2759 4.38593 8.21081 5.22901 6.67718 6.74429C5.92942 7.50741 5.33886 8.41225 4.93957 9.40663C4.54028 10.401 4.34015 11.4653 4.35073 12.538V68.4269C4.33737 69.4966 4.53631 70.5581 4.93585 71.5492C5.33538 72.5402 5.92744 73.4406 6.67718 74.1975C8.20139 75.7342 10.2677 76.5987 12.423 76.6016H62.8105C61.5776 74.4672 60.1703 72.0393 59.7397 71.3238" fill="#041E42"/>
<path d="M15.5405 59.4666C15.5405 54.5018 21.5028 52.0281 24.9689 55.5526C28.4352 59.0773 25.9308 65.0682 21.0085 65.026C20.2863 65.0276 19.5709 64.8845 18.9039 64.6051C18.2369 64.3257 17.6315 63.9155 17.1229 63.3984C16.6144 62.8812 16.2127 62.2673 15.9413 61.5924C15.6698 60.9175 15.534 60.1949 15.5417 59.4666" fill="white"/>
</g>
<defs>
<clipPath id="clip0_18_357">
<rect width="149" height="81" fill="white"/>
</clipPath>
</defs>
</svg>
