<svg width="55" height="118" viewBox="0 0 55 118" fill="none" xmlns="http://www.w3.org/2000/svg">
<path d="M2 11C2 5.47715 6.47715 1 12 1H43C48.5228 1 53 5.47715 53 11V107C53 112.523 48.5228 117 43 117H12C6.47715 117 2 112.523 2 107V11Z" fill="white"/>
<rect x="4.33057" y="2.81445" width="46.3386" height="112.371" rx="10" fill="white"/>
<path d="M40.2495 106.464C40.3571 104.724 40.3212 104.15 40.0862 103.867C39.9076 103.652 39.7813 102.98 39.7762 102.218C39.7684 101.064 39.6135 100.633 38.2594 98.0015C36.8143 95.1926 36.7623 95.0392 37.0191 94.3285C37.2586 93.6657 37.2246 93.4427 36.701 92.2346C36.1787 91.0295 35.9438 90.7669 34.545 89.8222C31.8315 87.9898 29.6504 86.1217 26.0188 82.5193C21.9643 78.4964 18.5979 74.0731 15.4762 68.6664C14.3922 66.7891 14.3074 66.7109 13.3499 66.7062C12.631 66.7027 11.7677 66.075 11.7709 65.5576C11.7718 65.4077 10.892 63.4687 9.8159 61.2491C7.0231 55.4885 6.78427 54.262 7.63826 50.0675C8.14516 47.5805 8.24043 47.3569 9.29753 46.1858C10.4198 44.9432 10.2438 44.5933 8.40564 44.4115C5.94999 44.1682 5.9751 44.1836 5.46604 42.6069C5.21574 41.8314 5.0109 40.9526 5.0109 40.654C5.0109 39.6645 6.13382 36.533 7.67767 33.2169C8.51521 31.4172 9.58919 28.963 10.064 27.7631C11.7536 23.493 14.0845 20.0787 15.9666 19.1177C16.7191 18.7336 18.1815 18.4448 22.5335 17.8201C24.956 17.4724 25.1267 17.2962 25.4746 14.7837C25.6771 13.3225 25.6569 13.0935 25.2746 12.4738C24.9987 12.0275 24.8497 11.3956 24.8497 10.6724C24.8497 9.65536 24.9067 9.52904 25.5039 9.22007C26.0811 8.9215 26.158 8.76831 26.158 7.91637C26.158 5.87838 26.569 4.74368 27.712 3.6313C28.0288 3.32233 28.3112 3.03047 28.5065 2.81445H13.5374C8.45285 2.81445 4.33057 6.93919 4.33057 12.0272V105.972C4.33057 111.06 8.45263 115.185 13.5374 115.185H40.9251C40.8326 114.981 40.6395 114.651 40.4153 114.324C39.7922 113.416 39.7989 113.735 40.2495 106.464Z" fill="#0E499D"/>
<path d="M41.4905 2.81445H33.5868C33.6643 2.90703 33.7762 3.00654 33.9121 3.09608C34.8895 3.73912 36.3721 5.28818 36.6086 5.91322C36.9648 6.85437 36.8847 8.10446 36.382 9.45427C36.0932 10.2291 35.9716 10.9225 36.0532 11.3309C36.2069 12.103 35.4519 13.7396 34.5582 14.5721C34.2359 14.8722 33.7792 15.4957 33.5432 15.9579C33.3073 16.4199 32.7219 17.2258 32.2423 17.7483C31.7631 18.2708 31.403 18.8653 31.4429 19.0693C31.4827 19.2735 32.053 19.7312 32.7105 20.0865C33.3682 20.4419 34.3523 21.1391 34.898 21.636C35.4437 22.1329 36.545 23.0045 37.3456 23.5727C40.2223 25.6152 41.6027 29.1077 41.617 34.3799C41.6234 36.7162 42.7578 42.192 43.5705 43.8092C44.6837 46.024 45.0867 47.2451 45.4351 49.4554C45.8823 52.2957 45.8957 52.3278 46.795 52.705C47.6545 53.0658 49.8802 54.8807 49.8802 55.2208C49.8802 55.3379 50.1004 55.7433 50.3691 56.1221L50.6692 56.5444V12.0327C50.6687 6.94152 46.5595 2.81445 41.4905 2.81445ZM50.5319 64.5418C50.5319 64.6524 50.0479 65.2744 49.4567 65.9244C45.333 70.4558 38.2755 69.4462 35.6848 63.9537C35.0579 62.6242 34.9925 62.2903 34.9925 60.4122C34.9925 58.619 35.0715 58.1694 35.5749 57.0901C36.3798 55.3652 37.9163 53.7851 39.5959 52.9544C40.36 52.5767 41.0305 52.1947 41.0849 52.1054C41.1397 52.0163 40.45 50.4527 39.5521 48.6302C37.4835 44.4318 37.2385 43.681 36.2997 38.6661C35.8754 36.3995 35.4842 34.4224 35.4301 34.2722C35.2563 33.7889 34.6491 33.9773 33.1474 34.9798L31.6784 35.9607L30.347 39.3478C29.6148 41.2103 29.0156 43.0113 29.0156 43.3493C29.0156 43.7298 29.2308 44.166 29.5797 44.4934C30.4498 45.3101 30.6846 45.9098 32.1594 51.0838C33.246 54.8952 33.4882 56.0087 33.3149 56.3913C33.1484 56.7573 33.2566 57.5606 33.7567 59.6805C34.4924 62.7998 34.7667 64.453 35.1097 67.8336C35.4575 71.2656 35.8253 72.3526 37.8049 75.8011C39.121 78.0931 39.5251 79.4746 40.4492 84.8405C40.8731 87.3027 41.3014 89.4701 41.4009 89.6566C41.5004 89.843 41.931 90.5175 42.358 91.1547C43.5321 92.9071 43.7088 93.7134 43.2868 95.3997C43.0941 96.17 42.8761 97.3305 42.8022 97.9788C42.6539 99.2761 43.1215 102.418 43.6523 103.695C43.8317 104.126 43.929 104.667 43.8692 104.897C43.809 105.128 44.06 106.281 44.4268 107.459C45.5736 111.144 45.5229 112.708 44.2021 114.383C43.9655 114.683 43.8386 114.853 43.7624 114.969C47.7324 113.953 50.6687 110.339 50.6687 106.035V64.3565C50.5889 64.3862 50.5319 64.4577 50.5319 64.5418Z" fill="#D30529"/>
<path d="M7.59766 94.4629H11.3197L13.4668 103.954H13.5028V94.4629H16.6164V109.864H12.966L10.7472 100.351H10.7112V109.864H7.59766V94.4629Z" fill="white"/>
<path d="M18.2275 94.4629H23.2561C25.6361 94.4629 26.7456 95.9943 26.7456 98.3023C26.7456 99.9416 26.1549 101.408 24.7414 101.753V101.796C26.4234 101.99 27.1035 103.716 27.1035 105.312C27.1035 107.987 26.03 109.864 23.2561 109.864H18.2275V94.4629ZM21.5559 100.503H22.3614C23.0413 100.503 23.4172 99.7692 23.4172 98.9495C23.4172 98.0867 23.0413 97.3534 22.3614 97.3534H21.5559V100.503ZM21.5559 106.973H22.4866C23.095 106.973 23.6676 106.326 23.6676 105.075C23.6676 103.889 23.0948 103.22 22.4866 103.22H21.5559V106.973Z" fill="white"/>
<path d="M30.416 94.4629H34.6033L37.7171 109.864H34.1737L33.8338 107.168H31.1853L30.8456 109.864H27.3018L30.416 94.4629ZM32.5274 97.6121H32.4917L31.579 104.148H33.4401L32.5274 97.6121Z" fill="white"/>
</svg>
