<svg width="90" height="120" viewBox="0 0 90 120" fill="none" xmlns="http://www.w3.org/2000/svg">
<g clip-path="url(#clip0_18_359)" filter="url(#filter0_d_18_359)">
<path d="M83.1803 12.7418C79.7627 15.2902 72.927 18.6879 64.3822 16.5642C49.2868 12.8832 45.0143 0 45.0143 0C45.0143 0 40.7135 12.8692 25.6463 16.5642C16.9735 18.6879 10.266 15.2617 6.70568 12.756H4V82.1275C4 83.9684 4.4271 87.3662 7.28949 90.9054C10.8357 95.1526 16.817 97.885 25.091 99.0742C31.7842 100.023 36.6262 102.09 40.0442 105.389C42.6075 107.809 45.0286 112 45.0286 112C45.0286 112 47.521 107.725 49.956 105.389C53.4019 102.09 58.2873 100.037 64.9088 99.0742C73.1975 97.8836 79.1501 95.1105 82.7104 90.8484C85.5729 87.3942 86 83.9256 86 82.1846V12.8125H83.28" fill="white"/>
<path d="M83.465 15.4318C83.465 15.4318 75.2477 21.7884 63.6703 18.9146C50.1839 15.5591 44.8719 5.52148 44.8719 5.52148C44.8719 5.52148 39.6311 15.5735 26.0735 18.9146C14.6807 21.7461 6.4209 15.3751 6.4209 15.3751V82.0569C6.42225 84.322 7.37492 93.9493 25.5038 96.4974C32.6387 97.5241 37.9649 99.7962 41.7389 103.463C43.1173 104.777 44.1599 106.11 44.9572 107.342C45.7589 106.115 46.8086 104.78 48.1754 103.463C52.0069 99.7962 57.3327 97.5171 64.4111 96.4974C82.4972 93.907 83.3514 84.2797 83.4937 82.0569V15.3751" fill="#013369"/>
<path d="M45.0141 100.703C45.0141 100.703 50.2549 94.275 63.8128 92.1938C79.4776 89.8015 78.9083 82.5246 78.9083 82.1564V47.1875H10.978V82.1566C10.978 82.5247 10.5167 89.8017 26.0735 92.1939C39.688 94.2891 44.8718 100.703 44.8718 100.703" fill="white"/>
<path d="M29.0646 72.7699L29.0621 56.2056L26.9686 55.0378V50.7336H36.5242V55.0378L34.5304 56.2056V90.0422L29.4323 88.5273L22.0552 66.8665L22.0539 81.1653L24.4037 82.9492V87.3522L14.1643 84.761V81.0093L16.5141 80.0976V56.1713L14.1074 54.9894V50.6855H21.8545L29.0891 72.7713M46.7235 87.9183L48.7739 90.3537V94.6576L38.6203 90.8914V87.2394L40.856 86.3274V56.1714L38.6346 55.0518V50.6913H56.2935V59.4547H52.4199L51.2461 55.8587H46.7606V65.9954H50.1215L51.4458 64.0701H54.1516V73.0886H51.4458L50.1711 71.2619H46.7533V87.9682M57.974 89.4757V85.1719L60.4947 83.1192V56.2199L58.3439 55.0999V50.7395H68.4979V55.0999L66.5048 56.2199V81.5618L70.8765 80.3877L71.7141 73.7625H75.8868V84.8337L57.9428 89.5904" fill="#D50A0A"/>
<path d="M12.758 40.0659L9.68164 37.7722H13.4415L14.6819 34.233L15.9222 37.7722H19.682L16.6058 40.08L17.7365 43.676L14.6746 41.5382L11.6129 43.676L12.7438 40.08M26.0734 40.0659L22.9973 37.7723H26.7568L27.9974 34.2331L29.2379 37.7723H32.9974L29.9213 40.0801L31.0519 43.6761L27.9902 41.5383L24.9283 43.6761L26.0591 40.0801M12.758 28.1737L9.68175 25.8801H13.4416L14.682 22.3409L15.9223 25.8801H19.6821L16.6059 28.1878L17.7366 31.7839L14.6747 29.646L11.613 31.784L12.7439 28.1878M26.0734 28.1737L22.9973 25.8801H26.7568L27.9974 22.3409L29.2379 25.8801H32.9974L29.9214 28.1878L31.052 31.7839L27.9902 29.646L24.9283 31.784L26.0591 28.1878M78.3383 43.6052L75.2765 41.4678L72.2146 43.6052L73.345 40.0092L70.2693 37.7015H74.0291L75.2694 34.1623L76.5094 37.7015H80.2692L77.1935 40.0092L78.3253 43.6052M64.9516 43.6052L61.8898 41.4678L58.8279 43.6052L59.9588 40.0092L56.8828 37.7015H60.6421L61.8827 34.1623L63.1246 37.7015H66.8839L63.8082 40.0092L64.94 43.6052M78.3383 31.713L75.2765 29.5753L72.2146 31.7129L73.345 28.1169L70.2693 25.8093H74.0291L75.2694 22.2701L76.5094 25.8093H80.2692L77.1935 28.1169L78.3253 31.7129M64.9516 31.713L61.8898 29.5753L58.8278 31.7129L59.9587 28.1169L56.8827 25.8093H60.642L61.8826 22.2701L63.1245 25.8093H66.8838L63.8081 28.1169L64.9399 31.7129M47.8624 25.4837C46.4937 24.3625 44.957 23.6434 43.3337 23.2895C43.728 22.9185 44.1326 22.6 44.4871 22.3057C46.5231 22.7925 47.8906 23.7001 48.8308 24.4716C48.4978 24.8114 48.1744 25.1428 47.8681 25.481L47.8625 25.4838L47.8624 25.4837ZM45.8831 27.8481C44.5784 26.7593 42.992 25.9509 41.1975 25.5828C41.4724 25.2303 41.7944 24.8551 42.1033 24.5067C43.4761 24.7489 45.2363 25.4681 46.774 26.7297C46.4613 27.1033 46.1679 27.4828 45.8913 27.8437L45.8831 27.8481ZM44.1026 30.3256C42.6958 29.1604 41.0551 28.4429 39.4459 28.1453C39.4459 28.1453 39.94 27.3441 40.2206 26.929C42.1858 27.3173 43.7807 28.2319 44.9059 29.166C44.6345 29.5496 44.3667 29.9356 44.1026 30.3241V30.3256ZM53.4018 18.4899C53.4018 18.4899 51.8072 19.3153 49.5857 21.4912C50.0871 21.7731 50.6507 22.1666 50.9741 22.4343C50.6378 22.73 50.2948 23.0501 49.9761 23.3502C48.5232 22.1653 47.0281 21.5664 45.8599 21.283C46.2476 21.0072 46.6591 20.7354 47.0652 20.4719C47.6914 20.6303 48.2982 20.8755 48.2982 20.8755C50.8045 18.9782 52.9838 18.1571 52.9838 18.1571C52.9838 18.1571 52.7311 18.0345 52.0607 18.0434C42.1915 18.17 33.1197 25.4901 34.829 38.0052C35.0124 39.3347 35.5321 41.7571 36.1929 42.8191C36.4125 40.7378 37.2014 36.1225 39.5398 31.1674C38.7266 30.877 38.0587 30.7581 38.0587 30.7581C38.298 30.2598 38.6299 29.624 38.6299 29.624C40.3671 29.9483 41.891 30.669 43.2154 31.7195C42.8977 32.2305 42.6827 32.5631 42.5304 32.8265C42.0734 32.4669 41.5877 32.145 41.078 31.8639C38.4432 36.4366 37.2329 40.7548 36.7343 43.006C36.7616 43.1452 37.0475 43.2169 37.2784 43.1871C48.0874 41.7953 53.0858 36.3065 54.6527 30.3745C55.6648 26.4814 55.3331 22.4039 53.9775 19.0769C53.8821 18.8432 53.6967 18.4553 53.3821 18.4836" fill="white"/>
</g>
<defs>
<filter id="filter0_d_18_359" x="0" y="0" width="90" height="120" filterUnits="userSpaceOnUse" color-interpolation-filters="sRGB">
<feFlood flood-opacity="0" result="BackgroundImageFix"/>
<feColorMatrix in="SourceAlpha" type="matrix" values="0 0 0 0 0 0 0 0 0 0 0 0 0 0 0 0 0 0 127 0" result="hardAlpha"/>
<feOffset dy="4"/>
<feGaussianBlur stdDeviation="2"/>
<feComposite in2="hardAlpha" operator="out"/>
<feColorMatrix type="matrix" values="0 0 0 0 0 0 0 0 0 0 0 0 0 0 0 0 0 0 0.25 0"/>
<feBlend mode="normal" in2="BackgroundImageFix" result="effect1_dropShadow_18_359"/>
<feBlend mode="normal" in="SourceGraphic" in2="effect1_dropShadow_18_359" result="shape"/>
</filter>
<clipPath id="clip0_18_359">
<rect width="82" height="112" fill="white" transform="translate(4)"/>
</clipPath>
</defs>
</svg>
