<svg width="1920" height="400" viewBox="0 0 1920 400" fill="none" xmlns="http://www.w3.org/2000/svg">
  <defs>
    <linearGradient id="terrainGrad" x1="0%" y1="0%" x2="0%" y2="100%">
      <stop offset="0%" style="stop-color:#84cc16;stop-opacity:0.15" />
      <stop offset="100%" style="stop-color:#84cc16;stop-opacity:0" />
    </linearGradient>
  </defs>
  
  <!-- Terrain lines with gradient effect -->
  <g opacity="0.3">
    <path d="M0,300 Q480,250 960,280 T1920,300" stroke="#84cc16" stroke-width="2" fill="none" opacity="0.4"/>
    <path d="M0,320 Q480,270 960,300 T1920,320" stroke="#84cc16" stroke-width="1.5" fill="none" opacity="0.3"/>
    <path d="M0,340 Q480,290 960,320 T1920,340" stroke="#84cc16" stroke-width="1" fill="none" opacity="0.2"/>
    <path d="M0,360 Q480,310 960,340 T1920,360" stroke="#84cc16" stroke-width="0.5" fill="none" opacity="0.1"/>
  </g>
  
  <!-- Vertical grid lines -->
  <g opacity="0.15">
    <line x1="100" y1="250" x2="100" y2="400" stroke="#84cc16" stroke-width="0.5"/>
    <line x1="200" y1="260" x2="200" y2="400" stroke="#84cc16" stroke-width="0.5"/>
    <line x1="300" y1="255" x2="300" y2="400" stroke="#84cc16" stroke-width="0.5"/>
    <line x1="400" y1="265" x2="400" y2="400" stroke="#84cc16" stroke-width="0.5"/>
    <line x1="500" y1="270" x2="500" y2="400" stroke="#84cc16" stroke-width="0.5"/>
    <line x1="600" y1="268" x2="600" y2="400" stroke="#84cc16" stroke-width="0.5"/>
    <line x1="700" y1="262" x2="700" y2="400" stroke="#84cc16" stroke-width="0.5"/>
    <line x1="800" y1="258" x2="800" y2="400" stroke="#84cc16" stroke-width="0.5"/>
    <line x1="900" y1="265" x2="900" y2="400" stroke="#84cc16" stroke-width="0.5"/>
    <line x1="1000" y1="272" x2="1000" y2="400" stroke="#84cc16" stroke-width="0.5"/>
    <line x1="1100" y1="268" x2="1100" y2="400" stroke="#84cc16" stroke-width="0.5"/>
    <line x1="1200" y1="260" x2="1200" y2="400" stroke="#84cc16" stroke-width="0.5"/>
    <line x1="1300" y1="255" x2="1300" y2="400" stroke="#84cc16" stroke-width="0.5"/>
    <line x1="1400" y1="262" x2="1400" y2="400" stroke="#84cc16" stroke-width="0.5"/>
    <line x1="1500" y1="270" x2="1500" y2="400" stroke="#84cc16" stroke-width="0.5"/>
    <line x1="1600" y1="265" x2="1600" y2="400" stroke="#84cc16" stroke-width="0.5"/>
    <line x1="1700" y1="258" x2="1700" y2="400" stroke="#84cc16" stroke-width="0.5"/>
    <line x1="1800" y1="263" x2="1800" y2="400" stroke="#84cc16" stroke-width="0.5"/>
  </g>
</svg>
